<?xml version="1.0" encoding="utf-8"?><svg viewBox="0 0 22 22" xmlns="http://www.w3.org/2000/svg" xmlns:xlink="http://www.w3.org/1999/xlink"><style>:root>svg{display:none}:root>svg:target{display:block}</style><svg viewBox="0 0 20 10" id="arrow" xmlns="http://www.w3.org/2000/svg"><path d="M19.756 4.226 15.774.244a.833.833 0 0 0-1.422.59v2.523a.208.208 0 0 1-.209.208H1.25a1.25 1.25 0 1 0 0 2.5h12.893c.115 0 .209.093.209.208v2.524a.833.833 0 0 0 1.422.589l3.982-3.982a.833.833 0 0 0 0-1.178Z"/></svg><svg viewBox="0 0 12 8" id="arrow-down" xmlns="http://www.w3.org/2000/svg"><path d="M5.76 7.44c-.318 0-.62-.136-.83-.375L.22 1.713A.887.887 0 0 1 1.553.542l4.118 4.68a.12.12 0 0 0 .18 0L9.968.543a.887.887 0 1 1 1.331 1.17L6.591 7.065c-.21.239-.513.376-.831.376Z"/></svg><svg viewBox="0 0 14 12" id="bed" xmlns="http://www.w3.org/2000/svg"><path d="M6.046 1.935h1.908c.884.001 1.65.609 1.853 1.469a.16.16 0 0 0 .155.122h2.924a.159.159 0 0 0 .16-.159v-1.59A1.272 1.272 0 0 0 11.773.503H2.227A1.272 1.272 0 0 0 .954 1.776v1.591a.159.159 0 0 0 .16.16h2.924c.074 0 .138-.051.155-.123.203-.86.97-1.468 1.853-1.469ZM.636 4.481A.636.636 0 0 0 0 5.117v3.341c0 .303.213.563.51.624a.16.16 0 0 1 .126.155v1.289a.636.636 0 1 0 1.273 0V9.254a.159.159 0 0 1 .159-.16h9.864a.159.159 0 0 1 .159.16v1.272a.636.636 0 1 0 1.273 0V9.237a.16.16 0 0 1 .127-.155.636.636 0 0 0 .509-.624v-3.34a.636.636 0 0 0-.636-.637H.636Z"/></svg><svg viewBox="0 0 10 20" id="facebook" xmlns="http://www.w3.org/2000/svg"><path d="M8.15 3.295h1.812V.14A23.394 23.394 0 0 0 7.322 0C4.71 0 2.921 1.643 2.921 4.663v2.779H.038v3.527h2.883v8.876h3.534V10.97H9.22l.439-3.527H6.454v-2.43c0-1.02.275-1.718 1.696-1.718Z"/></svg><svg viewBox="0 0 22 22" id="instagram" xmlns="http://www.w3.org/2000/svg"><path fill-rule="evenodd" clip-rule="evenodd" d="M6.875 0h8.25A6.876 6.876 0 0 1 22 6.875v8.25A6.876 6.876 0 0 1 15.125 22h-8.25A6.876 6.876 0 0 1 0 15.125v-8.25A6.876 6.876 0 0 1 6.875 0Zm8.25 19.938a4.818 4.818 0 0 0 4.813-4.813v-8.25a4.818 4.818 0 0 0-4.813-4.813h-8.25a4.818 4.818 0 0 0-4.813 4.813v8.25a4.818 4.818 0 0 0 4.813 4.813h8.25Z"/><path fill-rule="evenodd" clip-rule="evenodd" d="M5.5 11a5.5 5.5 0 1 1 11 0 5.5 5.5 0 0 1-11 0Zm2.063 0A3.442 3.442 0 0 0 11 14.438 3.442 3.442 0 0 0 14.438 11 3.441 3.441 0 0 0 11 7.562 3.441 3.441 0 0 0 7.562 11Z"/><path d="M16.913 5.82a.733.733 0 1 0 0-1.465.733.733 0 0 0 0 1.465Z"/></svg><svg viewBox="0 0 17 16" id="shower" xmlns="http://www.w3.org/2000/svg"><path fill-rule="evenodd" clip-rule="evenodd" d="M15.333 9.333a.671.671 0 0 1 .667.707A6.339 6.339 0 0 1 9.673 16H6.327A6.339 6.339 0 0 1 0 10.04a.677.677 0 0 1 .18-.493.657.657 0 0 1 .487-.214h2.412A.333.333 0 0 0 3.4 9.1a1.333 1.333 0 0 1 1.267-.933h3.336c.58.002 1.093.38 1.267.933.043.14.172.234.318.234h3.578c.184 0 .333-.149.333-.333V2a.667.667 0 0 0-1.112-.498l-.273.273a.333.333 0 0 0-.08.342 1.91 1.91 0 0 1-.455 1.959l-.133.137a.667.667 0 0 1-.943 0L8.74 2.449a.667.667 0 0 1 0-.943l.137-.137A1.954 1.954 0 0 1 10.83.924a.333.333 0 0 0 .336-.082l.309-.309A2 2 0 0 1 14.833 2v7c0 .184.15.333.334.333h.166ZM7.667 13.5c.184 0 .333-.15.333-.333V9.833a.333.333 0 0 0-.333-.333H5a.333.333 0 0 0-.333.333v3.334c0 .184.149.333.333.333h2.667Z"/><path d="M6 4.059c.096 0 .192-.02.28-.06l1.21-.558a.667.667 0 1 0-.557-1.212l-1.212.558A.667.667 0 0 0 6 4.059ZM9.415 7.673a.667.667 0 0 0 .874-.352l.524-1.226a.667.667 0 0 0-1.226-.524l-.52 1.23a.667.667 0 0 0 .348.872ZM6.99 6.05a.667.667 0 0 0 .943.005l.948-.937a.667.667 0 0 0-.937-.948l-.948.938a.667.667 0 0 0-.005.943Z"/></svg><svg viewBox="0 0 16 16" id="size" xmlns="http://www.w3.org/2000/svg"><path d="M4.667 3a.667.667 0 0 0 .666-.667V.667A.667.667 0 1 0 4 .667v1.666c0 .369.298.667.667.667ZM3 4.667A.667.667 0 0 0 2.333 4H.667a.667.667 0 0 0 0 1.333h1.666A.667.667 0 0 0 3 4.667ZM2.333 10.667H.667a.667.667 0 0 0 0 1.333h1.666a.667.667 0 0 0 0-1.333ZM11.333 0a.667.667 0 0 0-.666.667v1.666a.667.667 0 0 0 1.333 0V.667A.667.667 0 0 0 11.333 0ZM4.667 13a.667.667 0 0 0-.667.667v1.666a.667.667 0 1 0 1.333 0v-1.666A.667.667 0 0 0 4.667 13ZM11.333 13a.667.667 0 0 0-.666.667v1.666a.667.667 0 0 0 1.333 0v-1.666a.667.667 0 0 0-.667-.667ZM13.667 5.333h1.666a.667.667 0 1 0 0-1.333h-1.666a.667.667 0 1 0 0 1.333ZM15.333 10.667h-1.666a.667.667 0 0 0 0 1.333h1.666a.667.667 0 0 0 0-1.333Z"/><path fill-rule="evenodd" clip-rule="evenodd" d="M11.333 4c.368 0 .667.298.667.667v6.666a.667.667 0 0 1-.667.667H4.667A.667.667 0 0 1 4 11.333V4.667C4 4.298 4.298 4 4.667 4h6.666Zm-1 6.667c.184 0 .334-.15.334-.334V5.667a.333.333 0 0 0-.334-.334H5.667a.333.333 0 0 0-.334.334v4.666c0 .184.15.334.334.334h4.666Z"/></svg><svg viewBox="0 0 22 18" id="twitter" xmlns="http://www.w3.org/2000/svg"><path d="M22 2.116a9.404 9.404 0 0 1-2.599.712A4.485 4.485 0 0 0 21.385.336a9.014 9.014 0 0 1-2.86 1.091 4.509 4.509 0 0 0-7.802 3.084c0 .358.03.702.105 1.029-3.75-.183-7.067-1.98-9.296-4.718a4.54 4.54 0 0 0-.618 2.28c0 1.562.805 2.947 2.004 3.748A4.454 4.454 0 0 1 .88 6.295v.05a4.531 4.531 0 0 0 3.614 4.43 4.5 4.5 0 0 1-1.183.15c-.289 0-.58-.017-.854-.078.585 1.787 2.243 3.1 4.215 3.142a9.063 9.063 0 0 1-5.593 1.924c-.37 0-.724-.017-1.079-.062a12.697 12.697 0 0 0 6.919 2.024c8.3 0 12.837-6.875 12.837-12.834 0-.2-.007-.392-.017-.583A8.999 8.999 0 0 0 22 2.116Z"/></svg></svg>