<?xml version="1.0" encoding="utf-8"?><svg viewBox="0 0 22 22" xmlns="http://www.w3.org/2000/svg" xmlns:xlink="http://www.w3.org/1999/xlink"><style>:root>svg{display:none}:root>svg:target{display:block}</style><svg viewBox="0 0 20 10" id="arrow" xmlns="http://www.w3.org/2000/svg"><path d="M19.756 4.226 15.774.244a.833.833 0 0 0-1.422.59v2.523a.208.208 0 0 1-.209.208H1.25a1.25 1.25 0 1 0 0 2.5h12.893c.115 0 .209.093.209.208v2.524a.833.833 0 0 0 1.422.589l3.982-3.982a.833.833 0 0 0 0-1.178Z"/></svg><svg viewBox="0 0 10 20" id="facebook" xmlns="http://www.w3.org/2000/svg"><path d="M8.15 3.295h1.812V.14A23.394 23.394 0 0 0 7.322 0C4.71 0 2.921 1.643 2.921 4.663v2.779H.038v3.527h2.883v8.876h3.534V10.97H9.22l.439-3.527H6.454v-2.43c0-1.02.275-1.718 1.696-1.718Z"/></svg><svg viewBox="0 0 22 22" id="instagram" xmlns="http://www.w3.org/2000/svg"><path fill-rule="evenodd" clip-rule="evenodd" d="M6.875 0h8.25A6.876 6.876 0 0 1 22 6.875v8.25A6.876 6.876 0 0 1 15.125 22h-8.25A6.876 6.876 0 0 1 0 15.125v-8.25A6.876 6.876 0 0 1 6.875 0Zm8.25 19.938a4.818 4.818 0 0 0 4.813-4.813v-8.25a4.818 4.818 0 0 0-4.813-4.813h-8.25a4.818 4.818 0 0 0-4.813 4.813v8.25a4.818 4.818 0 0 0 4.813 4.813h8.25Z"/><path fill-rule="evenodd" clip-rule="evenodd" d="M5.5 11a5.5 5.5 0 1 1 11 0 5.5 5.5 0 0 1-11 0Zm2.063 0A3.442 3.442 0 0 0 11 14.438 3.442 3.442 0 0 0 14.438 11 3.441 3.441 0 0 0 11 7.562 3.441 3.441 0 0 0 7.562 11Z"/><path d="M16.913 5.82a.733.733 0 1 0 0-1.465.733.733 0 0 0 0 1.465Z"/></svg><svg viewBox="0 0 22 18" id="twitter" xmlns="http://www.w3.org/2000/svg"><path d="M22 2.116a9.404 9.404 0 0 1-2.599.712A4.485 4.485 0 0 0 21.385.336a9.014 9.014 0 0 1-2.86 1.091 4.509 4.509 0 0 0-7.802 3.084c0 .358.03.702.105 1.029-3.75-.183-7.067-1.98-9.296-4.718a4.54 4.54 0 0 0-.618 2.28c0 1.562.805 2.947 2.004 3.748A4.454 4.454 0 0 1 .88 6.295v.05a4.531 4.531 0 0 0 3.614 4.43 4.5 4.5 0 0 1-1.183.15c-.289 0-.58-.017-.854-.078.585 1.787 2.243 3.1 4.215 3.142a9.063 9.063 0 0 1-5.593 1.924c-.37 0-.724-.017-1.079-.062a12.697 12.697 0 0 0 6.919 2.024c8.3 0 12.837-6.875 12.837-12.834 0-.2-.007-.392-.017-.583A8.999 8.999 0 0 0 22 2.116Z"/></svg></svg>